<svg xmlns="http://www.w3.org/2000/svg" id="shopping-basket" width="22.903" height="21.001" viewBox="0 0 22.903 21.001">
    <defs>
        <style>
            .cls-1{fill:#fff}
        </style>
    </defs>
    <g id="Group_14" data-name="Group 14">
        <path id="Path_5" d="M289.928 25.759h2.008l-2.976-5.106a.866.866 0 1 0-1.5.875z" class="cls-1" data-name="Path 5" transform="translate(-273.834 -20.222)"/>
        <path id="Path_6" d="M106.771 21.57a.866.866 0 1 0-1.5-.875l-2.971 5.111h2.008z" class="cls-1" data-name="Path 6" transform="translate(-97.49 -20.265)"/>
        <path id="Path_7" d="M21.427 171.278H1.472A1.471 1.471 0 0 0 0 172.75v1.632a1.471 1.471 0 0 0 1.472 1.472h.461l1.42 7.7a2.017 2.017 0 0 0 1.867 1.627h12.168a2.017 2.017 0 0 0 1.867-1.627l1.429-7.7h.748a1.471 1.471 0 0 0 1.472-1.472v-1.632a1.477 1.477 0 0 0-1.477-1.472zm-13.3 7.692v3.32a.832.832 0 0 1-1.664 0v-4.655a.832.832 0 1 1 1.664 0zm2.671 0v3.32a.832.832 0 0 1-1.664 0v-4.655a.831.831 0 0 1 .832-.832.849.849 0 0 1 .832.832zm2.682 1.93v1.392a.832.832 0 0 1-1.664 0v-4.655a.849.849 0 0 1 .832-.832.831.831 0 0 1 .832.832zm2.671 0v1.392a.832.832 0 0 1-1.664 0v-4.655a.832.832 0 1 1 1.664 0z" class="cls-1" data-name="Path 7" transform="translate(0 -164.175)"/>
    </g>
</svg>
