<svg xmlns="http://www.w3.org/2000/svg" id="facebook_4_" width="12.514" height="24.773" data-name="facebook (4)" viewBox="0 0 12.514 24.773">
    <path id="XMLID_835_" fill="#d8d8d8" d="M77.1 13.194h2.715v11.179a.4.4 0 0 0 .4.4h4.6a.4.4 0 0 0 .4-.4V13.247h3.122a.4.4 0 0 0 .4-.354l.474-4.116a.4.4 0 0 0-.4-.445h-3.6v-2.58c0-.778.419-1.172 1.245-1.172h2.351a.4.4 0 0 0 .4-.4V.4a.4.4 0 0 0-.4-.4H85.419a6.209 6.209 0 0 0-4.06 1.53 4.257 4.257 0 0 0-1.416 3.784v3.018H77.1a.4.4 0 0 0-.4.4v4.063a.4.4 0 0 0 .4.399z" transform="translate(-76.703)"/>
</svg>
