<svg xmlns="http://www.w3.org/2000/svg" id="instagram_1_" width="24.317" height="24.317" data-name="instagram (1)" viewBox="0 0 24.317 24.317">
    <defs>
        <style>
            .cls-1{fill:#d8d8d8}
        </style>
    </defs>
    <g id="Group_4" data-name="Group 4">
        <g id="Group_3" data-name="Group 3">
            <path id="Path_2" d="M16.718 0H7.6A7.6 7.6 0 0 0 0 7.6v9.119a7.6 7.6 0 0 0 7.6 7.6h9.119a7.6 7.6 0 0 0 7.6-7.6V7.6A7.6 7.6 0 0 0 16.718 0zm5.319 16.718a5.325 5.325 0 0 1-5.319 5.319H7.6a5.325 5.325 0 0 1-5.32-5.319V7.6A5.325 5.325 0 0 1 7.6 2.28h9.119a5.325 5.325 0 0 1 5.318 5.32z" class="cls-1" data-name="Path 2"/>
        </g>
    </g>
    <g id="Group_6" data-name="Group 6" transform="translate(6.079 6.079)">
        <g id="Group_5" data-name="Group 5">
            <path id="Path_3" d="M134.079 128a6.079 6.079 0 1 0 6.079 6.079 6.08 6.08 0 0 0-6.079-6.079zm0 9.879a3.8 3.8 0 1 1 3.8-3.8 3.8 3.8 0 0 1-3.8 3.8z" class="cls-1" data-name="Path 3" transform="translate(-128 -128)"/>
        </g>
    </g>
    <g id="Group_8" data-name="Group 8" transform="translate(17.884 4.813)">
        <g id="Group_7" data-name="Group 7">
            <circle id="Ellipse_1" cx=".81" cy=".81" r=".81" class="cls-1" data-name="Ellipse 1"/>
        </g>
    </g>
</svg>
